<svg width="32" height="32" viewBox="0 0 32 32" fill="none" xmlns="http://www.w3.org/2000/svg">
<path d="M29.7062 7.73761C29.4096 7.59157 29.282 7.86987 29.1086 8.01114C29.0492 8.05672 28.9989 8.11593 28.9489 8.17059C28.5154 8.63574 28.0089 8.9413 27.3472 8.9048C26.38 8.85014 25.5539 9.15563 24.8239 9.89885C24.6687 8.98233 24.1532 8.43489 23.3684 8.08398C22.9577 7.9016 22.5425 7.71907 22.255 7.32236C22.0542 7.03974 21.9994 6.72502 21.8991 6.41492C21.8352 6.22807 21.7712 6.03646 21.5567 6.00443C21.3241 5.96794 21.2327 6.16395 21.1416 6.32831C20.7765 6.9987 20.635 7.73739 20.6488 8.48516C20.6808 10.168 21.388 11.5085 22.7935 12.4617C22.9532 12.5712 22.9942 12.6806 22.9441 12.8402C22.8483 13.1686 22.7342 13.4877 22.6338 13.8161C22.5699 14.0259 22.4739 14.0715 22.2504 13.9803C21.4794 13.6567 20.813 13.1777 20.2244 12.5987C19.225 11.6273 18.3216 10.5556 17.1945 9.71647C16.9337 9.52267 16.6658 9.33863 16.3914 9.16471C15.2415 8.04294 16.542 7.12166 16.8431 7.01233C17.158 6.89824 16.9527 6.50615 15.935 6.51069C14.9174 6.51523 13.9865 6.85721 12.8003 7.31327C12.6268 7.38178 12.4444 7.4319 12.2572 7.47279C11.1803 7.26754 10.0624 7.22197 8.89421 7.35416C6.69474 7.60029 4.93812 8.64468 3.64681 10.4278C2.09545 12.5714 1.73029 15.0064 2.17751 17.5465C2.64748 20.2232 4.00722 22.4396 6.09712 24.1725C8.26456 25.969 10.7606 26.8493 13.6078 26.6805C15.3372 26.5803 17.2629 26.3478 19.4348 24.5007C19.9824 24.7743 20.5573 24.8838 21.511 24.9659C22.2457 25.0344 22.953 24.9294 23.5005 24.8155C24.3584 24.6331 24.2991 23.835 23.9888 23.6892C21.4747 22.5128 22.0266 22.9916 21.5247 22.6039C22.8023 21.0855 24.728 19.5076 25.4809 14.3955C25.5402 13.9898 25.4899 13.7344 25.4809 13.406C25.4764 13.2055 25.5219 13.1279 25.7501 13.1051C26.3798 13.032 26.9912 12.859 27.5525 12.5487C29.1814 11.6549 29.8386 10.1865 29.9937 8.42632C30.0165 8.15733 29.9892 7.87888 29.7062 7.73761ZM15.5108 23.5794C13.074 21.6552 11.8923 21.0212 11.404 21.0486C10.9478 21.076 11.0298 21.6004 11.1302 21.9424C11.2351 22.2799 11.3722 22.5124 11.5637 22.8088C11.696 23.005 11.7874 23.2967 11.4315 23.5158C10.6467 24.0036 9.28227 23.3516 9.2183 23.3195C7.63039 22.3801 6.30253 21.1398 5.36703 19.4435C4.46363 17.8108 3.9388 16.0599 3.85222 14.1901C3.82939 13.7388 3.96178 13.5789 4.40885 13.497C4.99743 13.3875 5.60432 13.3646 6.19297 13.4512C8.67976 13.8161 10.7969 14.9334 12.572 16.7027C13.5851 17.7103 14.3516 18.9144 15.1412 20.0908C15.9807 21.3403 16.8842 22.5306 18.0341 23.5065C18.4402 23.8484 18.7641 24.1084 19.0745 24.3C18.139 24.4048 16.5784 24.4277 15.5108 23.5794ZM16.6893 15.9447C16.7279 15.7875 16.8688 15.6723 17.0394 15.6723C17.0814 15.6724 17.1231 15.6801 17.1625 15.695C17.2127 15.7133 17.2583 15.7407 17.2949 15.7816C17.3587 15.8456 17.3953 15.9367 17.3953 16.0324C17.3953 16.2331 17.2356 16.3926 17.0348 16.3926C16.9501 16.3934 16.8679 16.3635 16.8034 16.3083C16.7389 16.2531 16.6964 16.1764 16.6836 16.0922C16.6757 16.0431 16.6777 15.993 16.6893 15.9447ZM20.1888 17.9491C19.9956 18.0233 19.8033 18.0815 19.6175 18.0891C19.2706 18.1073 18.892 17.9659 18.6867 17.7926C18.3674 17.5236 18.1392 17.3733 18.0434 16.9034C18.0023 16.7027 18.025 16.3926 18.0616 16.2148C18.1437 15.8317 18.0524 15.5854 17.7833 15.362C17.5643 15.1796 17.2858 15.1295 16.9802 15.1295C16.8661 15.1295 16.7612 15.0794 16.6836 15.0384C16.5558 14.9746 16.4509 14.8149 16.5513 14.6188C16.5833 14.555 16.7385 14.3999 16.775 14.3727C17.1901 14.1355 17.6694 14.213 18.1119 14.3908C18.5225 14.5596 18.8329 14.8696 19.28 15.3074C19.7363 15.8363 19.8184 15.9823 20.0786 16.379C20.284 16.689 20.4711 17.0084 20.5989 17.373C20.6639 17.5638 20.6041 17.726 20.4253 17.8405C20.3526 17.8871 20.269 17.9183 20.1888 17.9491Z" fill="#4D6BFE"/>
</svg>
