<svg width="32" height="32" viewBox="0 0 32 32" fill="none" xmlns="http://www.w3.org/2000/svg">
<path d="M28.2811 24.6417C27.5497 24.6417 26.9455 25.2459 26.9455 25.9773C26.9455 26.7087 26.3413 27.3129 25.6099 27.3129C24.8785 27.3129 24.2743 26.7087 24.2743 25.9773V19.2834C24.4015 18.9177 24.5128 18.552 24.5128 18.1863C24.5128 18.1863 24.5128 10.6496 24.5128 10.3952C24.5128 5.76831 20.8558 2 16.2447 2C11.6337 2 7.84952 5.78421 7.84952 10.4111C7.84952 10.6496 7.84952 18.2022 7.84952 18.2022C7.84952 18.6951 7.97672 19.1721 8.34242 19.665V25.9932C8.34242 26.7246 7.73822 27.3288 7.00681 27.3288C6.27541 27.3288 5.67121 26.7246 5.67121 25.9932C5.67121 25.2618 5.06701 24.6576 4.3356 24.6576C3.6042 24.6576 3 25.2618 3 25.9932C3 28.0602 4.70131 29.7615 6.76831 30C6.89551 30 6.89551 30 7.00681 30C7.13401 30 7.13401 30 7.24531 30C9.31232 29.8728 11.0136 28.1715 11.0136 25.9932V20.7621C11.0136 20.7621 10.8864 19.665 11.8722 19.665C12.8421 19.665 12.7308 20.7621 12.7308 20.7621V25.9932C12.7308 26.7246 13.335 27.3288 14.0664 27.3288C14.7978 27.3288 15.402 26.7246 15.402 25.9932V20.7621C15.402 20.7621 15.1635 19.665 16.2606 19.665C17.3578 19.665 17.1192 20.7621 17.1192 20.7621V25.9932C17.1192 26.7246 17.7235 27.3288 18.4549 27.3288C19.1863 27.3288 19.7905 26.7246 19.7905 25.9932V20.7621C19.7905 20.7621 19.6633 19.665 20.6491 19.665C21.619 19.665 21.5077 20.7621 21.5077 20.7621V25.9932C21.5077 28.0602 23.209 29.7615 25.276 30C25.4032 30 25.4032 30 25.5145 30C25.6258 30 25.6417 30 25.753 30C27.82 29.8728 29.5213 28.1715 29.5213 25.9932C29.6167 25.2459 29.0125 24.6417 28.2811 24.6417ZM11.8563 17.0892C11.1249 17.0892 10.5207 16.3578 10.5207 15.3878C10.5207 14.4179 11.1249 13.6865 11.8563 13.6865C12.5877 13.6865 13.1919 14.4179 13.1919 15.3878C13.1919 16.3578 12.5877 17.0892 11.8563 17.0892ZM20.7445 17.0892C20.0131 17.0892 19.4089 16.3578 19.4089 15.3878C19.4089 14.4179 20.0131 13.6865 20.7445 13.6865C21.4759 13.6865 22.0801 14.4179 22.0801 15.3878C22.0801 16.3578 21.4759 17.0892 20.7445 17.0892Z" fill="#5340B2"/>
</svg>
