<svg width="721" height="123" viewBox="0 0 721 123" fill="none" xmlns="http://www.w3.org/2000/svg">
<path d="M185.424 33.8588C182.24 33.8588 179.247 35.0921 177.006 37.3325L167.952 46.3625C165.509 48.7985 164.254 52.181 164.511 55.6487C164.53 55.838 164.548 56.0273 164.567 56.2226C164.891 58.8845 166.06 61.2839 167.952 63.1643C169.256 64.4648 170.694 65.2892 172.439 65.8631C172.531 66.3881 172.58 66.9191 172.58 67.4504C172.58 69.8438 171.65 72.0905 169.96 73.7756L169.403 74.3312C166.379 73.2992 163.856 71.7914 161.579 69.5201C158.555 66.5039 156.553 62.6942 155.8 58.5122L155.696 57.932L155.237 58.3046C154.925 58.5548 154.631 58.8236 154.355 59.0981L145.301 68.1281C140.66 72.7559 140.66 80.2961 145.301 84.9239C147.621 87.2378 150.67 88.3979 153.725 88.3979C156.779 88.3979 159.822 87.2378 162.142 84.9239L171.197 75.8942C175.837 71.2661 175.837 63.7322 171.197 59.0981C169.96 57.8651 168.485 56.9369 166.813 56.3387C166.721 55.7951 166.672 55.2518 166.672 54.7208C166.672 52.1198 167.701 49.6532 169.586 47.7728C172.617 48.8045 175.304 50.4776 177.575 52.7426C180.593 55.7525 182.589 59.5562 183.354 63.7505L183.458 64.3304L183.918 63.9581C184.23 63.7079 184.524 63.4391 184.805 63.1583L193.86 54.1286C198.5 49.5005 198.506 41.9606 193.86 37.3325C191.613 35.0921 188.625 33.8588 185.436 33.8588H185.424Z" fill="#1C3C3C"/>
<path d="M180.572 0.834747H62.101C28.3449 0.834747 0.88208 28.2234 0.88208 61.8885C0.88208 95.5532 28.3449 122.942 62.101 122.942H180.572C214.328 122.942 241.791 95.5532 241.791 61.8885C241.791 28.2234 214.328 0.834747 180.572 0.834747ZM122.138 96.5547C120.185 96.9576 117.988 97.0308 116.494 95.4741C115.943 96.7377 114.657 96.0723 113.666 95.9076C113.574 96.1638 113.494 96.3896 113.408 96.6461C110.109 96.866 107.636 93.5082 106.062 90.9743C102.94 89.2893 99.3955 88.2636 96.2059 86.499C96.0223 89.4054 96.6592 93.0075 93.8857 94.8819C93.745 100.468 102.359 95.5412 103.148 99.7049C102.536 99.7721 101.857 99.6071 101.367 100.077C99.1201 102.257 96.5428 98.4291 93.9532 100.01C90.4759 101.756 90.127 103.185 85.8232 103.545C85.5847 103.185 85.6825 102.947 85.8844 102.727C87.0967 101.323 87.1825 99.6684 89.2516 99.0699C87.1213 98.7342 85.3396 99.9066 83.5459 100.834C81.2134 101.787 81.232 98.6852 77.6446 100.999C77.2465 100.676 77.4364 100.383 77.6629 100.132C78.5749 99.0213 79.7749 98.8563 81.1279 98.9175C74.4733 95.2176 71.3389 103.441 68.2657 99.351C67.3414 99.5952 66.9925 100.425 66.4108 101.011C65.9089 100.462 66.2884 99.7965 66.313 99.1494C65.713 98.8686 64.9537 98.7342 65.1313 97.7757C63.9559 97.3788 63.1357 98.0748 62.2603 98.7342C61.4704 98.1237 62.7928 97.2323 63.0376 96.5972C63.7417 95.3762 65.3455 96.3471 66.1597 95.4678C68.4739 94.1553 71.7001 96.2858 74.3449 95.9258C76.3834 96.182 78.9055 94.0941 77.8831 92.0121C75.7039 89.2344 76.0894 85.6016 76.0405 82.2803C75.7711 80.3447 71.1124 77.8782 69.7657 75.7902C68.1004 73.9098 66.8026 71.7303 65.5048 69.5874C60.8215 60.5451 62.2969 48.9267 56.3953 40.5318C53.7262 42.0033 50.2489 41.3073 47.9473 39.3351C46.7044 40.4646 46.6492 41.9421 46.5514 43.5114C43.57 40.5381 43.9435 34.9209 46.3249 31.6119C47.2984 30.3053 48.4615 29.2308 49.7593 28.2844C50.053 28.0708 50.1511 27.8632 50.1448 27.5335C52.5019 16.959 68.578 18.9982 73.6591 26.4895C77.3446 31.0992 78.4588 37.1982 82.6399 41.4783C88.2658 47.6202 94.6756 53.0295 99.8668 59.5683C104.777 65.5455 108.284 72.5544 111.345 79.6185C112.594 81.9627 112.607 84.8385 114.455 86.841C115.367 88.05 119.824 91.3407 118.857 92.5068C119.414 93.7155 123.577 95.3823 122.132 96.5547H122.138ZM200.217 60.4842L191.163 69.5139C188.75 71.9196 185.769 73.7145 182.537 74.6973L182.372 74.7462L182.31 74.9049C181.257 77.6769 179.66 80.1495 177.554 82.2438L168.499 91.2735C164.551 95.2116 159.298 97.3788 153.703 97.3788C148.107 97.3788 142.855 95.2116 138.906 91.2735C130.746 83.1351 130.746 69.8985 138.906 61.7601L147.96 52.7304C150.385 50.3127 153.287 48.5727 156.574 47.5653L156.739 47.5164L156.8 47.3577C157.853 44.5857 159.457 42.1071 161.57 39.9945L170.624 30.9648C174.572 27.0267 179.825 24.8593 185.42 24.8593C191.016 24.8593 196.268 27.0267 200.217 30.9648C204.166 34.9026 206.339 40.1412 206.339 45.7215C206.339 51.3018 204.166 56.5461 200.217 60.4782V60.4842Z" fill="#1C3C3C"/>
<path d="M85.3086 85.626C84.5127 88.7154 84.2556 93.972 80.2275 94.1247C79.8969 95.9076 81.4641 96.579 82.8966 96.0051C84.3108 95.358 84.984 96.5181 85.4616 97.6719C87.6471 97.9893 90.8796 96.9453 91.002 94.3629C87.7389 92.4885 86.7288 88.923 85.3146 85.62L85.3086 85.626Z" fill="#1C3C3C"/>
<path d="M298.509 32.8367H287.754V98.075H333.882V87.683H298.509V32.8367Z" fill="#1C3C3C"/>
<path d="M387.945 98.075H398.7V97.9589H398.841L398.862 97.4801C398.865 97.34 398.904 96.0344 398.706 94.0226V69.7427C398.706 60.608 405.366 56.4494 411.555 56.4494C418.212 56.4494 421.452 60.0374 421.452 67.4216V98.075H432.207V65.9903C432.207 53.8043 424.464 46.2317 412.005 46.2317C406.71 46.2317 401.985 47.7356 398.274 50.5934L398.175 47.1263H387.96V98.075H387.945Z" fill="#1C3C3C"/>
<path d="M475.977 50.8691C472.239 47.8322 467.433 46.2317 462.012 46.2317C447.51 46.2317 438.501 56.2319 438.501 72.3299C438.501 88.4279 447.51 98.5199 462.012 98.5199C467.127 98.5199 471.693 97.1273 475.29 94.4771C474.981 102.374 470.034 107.065 461.925 107.065C455.106 107.065 451.248 104.893 450.456 100.614L450.357 100.082L439.908 103.269L440.001 103.699C441.765 112.205 449.724 117.282 461.301 117.282C469.155 117.282 475.314 115.145 479.613 110.923C483.951 106.668 486.147 100.536 486.147 92.7026V47.1263H476.199L475.983 50.8691H475.977ZM475.305 72.7796C475.305 82.4993 470.571 88.307 462.636 88.307C454.131 88.307 449.256 82.4846 449.256 72.3347C449.256 62.1845 454.134 56.4494 462.636 56.4494C470.379 56.4494 475.227 62.228 475.305 71.5271V72.7796Z" fill="#1C3C3C"/>
<path d="M539.136 77.3877C536.907 84.5976 531.183 88.5726 523.023 88.5726C511.356 88.5726 504.102 79.7136 504.102 65.4534C504.102 51.1929 511.419 42.3339 523.203 42.3339C531.357 42.3339 536.055 45.5304 538.446 52.692L539.562 56.043L549.717 51.2751L548.763 48.5913C544.896 37.6965 535.965 31.9419 522.936 31.9419C514.083 31.9419 506.568 35.1384 501.201 41.1831C495.891 47.1696 493.08 55.5594 493.08 65.4582C493.08 85.8162 504.831 98.9742 523.023 98.9742C535.842 98.9742 545.772 92.2671 549.582 81.0291L550.554 78.1566L540.123 74.1912L539.13 77.3925L539.136 77.3877Z" fill="#1C3C3C"/>
<path d="M579.3 46.2317C574.164 46.2317 569.595 47.639 566.007 50.3132V26.5845H555.252V98.0798H566.007V69.7478C566.007 60.5552 572.664 56.3675 578.856 56.3675C585.513 56.3675 588.753 59.9555 588.753 67.3394V98.0849H599.508V65.9081C599.508 53.9591 591.579 46.2416 579.306 46.2416L579.3 46.2317Z" fill="#1C3C3C"/>
<path d="M662.37 25.0468C658.374 25.0468 655.473 27.9482 655.473 31.9425C655.473 35.9367 658.374 38.8383 662.37 38.8383C666.363 38.8383 669.264 35.9367 669.264 31.9425C669.264 27.9482 666.363 25.0468 662.37 25.0468Z" fill="#1C3C3C"/>
<path d="M700.668 46.2317C695.373 46.2317 690.651 47.7356 686.94 50.5934L686.838 47.1263H676.626V98.075H687.381V69.7427C687.381 60.608 694.038 56.4494 700.23 56.4494C706.887 56.4494 710.127 60.0374 710.127 67.4216V98.075H720.882V65.9903C720.882 53.8043 713.139 46.2317 700.68 46.2317H700.668Z" fill="#1C3C3C"/>
<path d="M667.593 47.1263H656.892V72.3833C653.922 69.8879 650.424 68.0021 646.476 66.7691V64.2011C646.476 52.9487 639.09 46.2317 626.715 46.2317C616.662 46.2317 609.144 50.9516 606.081 59.177L605.256 61.3964L613.878 67.7507L615.357 63.8966C617.307 58.8143 620.919 56.4449 626.715 56.4449C632.514 56.4449 635.721 59.2349 635.721 64.733V65.0186C635.376 65.0039 635.028 64.9943 634.68 64.9895C623.166 64.8056 614.766 67.4993 609.714 72.9827C604.545 78.5921 604.998 84.893 605.067 85.5893L605.115 86.0729H605.163C605.967 93.9212 612.822 98.96 622.785 98.96C628.272 98.96 633.342 97.4321 637.176 94.6418L637.218 98.0702H646.476V82.1318L646.275 81.9869C644.967 81.0293 642.684 79.7915 639.249 79.3562C638.172 79.2209 637.143 79.1531 636.195 79.1726H635.715V80.6378C635.715 84.0083 631.842 88.7519 623.226 88.7519C616.866 88.7519 615.918 86.0777 615.918 84.482V84.3176C615.966 83.6021 616.266 81.8513 617.847 80.2217C619.854 78.1472 624.372 75.7199 634.503 75.8747C641.838 75.9905 647.466 78.041 651.234 81.9722C655.857 86.7983 656.727 93.404 656.886 95.9909V98.075H667.587V47.1263H667.593Z" fill="#1C3C3C"/>
<path d="M360.138 46.0094C350.085 46.0094 342.567 50.729 339.504 58.9544L338.679 61.1741L347.301 67.5281L348.78 63.674C350.73 58.5917 354.342 56.2223 360.138 56.2223C365.937 56.2223 369.144 59.0126 369.144 64.5107V65.8019L358.068 67.7555C345.084 70.0523 338.499 75.6038 338.499 84.2498C338.499 92.8961 345.447 98.7377 356.202 98.7377C361.692 98.7377 366.759 97.2095 370.593 94.4192L370.638 97.8479H379.893V63.9788C379.893 52.7261 372.51 46.0094 360.138 46.0094ZM369.144 75.8795V80.42C369.144 83.7905 365.268 88.5344 356.652 88.5344C350.292 88.5344 349.347 85.8602 349.347 84.2645C349.347 82.8476 349.347 79.5302 360.612 77.4413L369.144 75.8843V75.8795Z" fill="#1C3C3C"/>
</svg>
