<svg width="32" height="32" viewBox="0 0 32 32" fill="none" xmlns="http://www.w3.org/2000/svg">
<path d="M9.96323 5.68652H5.96385V9.64873H9.96323V5.68652Z" fill="#FFD800"/>
<path d="M25.9627 5.68652H21.9633V9.64873H25.9627V5.68652Z" fill="#FFD800"/>
<path d="M13.9626 9.64827L5.96385 9.64873L5.96387 13.6105H13.9626V9.64827Z" fill="#FFAF00"/>
<path d="M25.9627 9.64873L17.9641 9.64827V13.6105H25.9629L25.9627 9.64873Z" fill="#FFAF00"/>
<path d="M25.9629 13.6105H5.96387V17.5723H25.9631L25.9629 13.6105Z" fill="#FF8205"/>
<path d="M9.96324 17.5733H5.96387V21.5355H9.96324V17.5733Z" fill="#FA500F"/>
<path d="M17.963 17.5733H13.9636V21.5355H17.963V17.5733Z" fill="#FA500F"/>
<path d="M25.9628 17.5733H21.9634V21.5355H25.9628V17.5733Z" fill="#FA500F"/>
<path d="M13.9651 21.5379H1.9646V25.5001H13.9651V21.5379Z" fill="#E10500"/>
<path d="M29.9646 21.5379H17.9641V25.5001H29.9646V21.5379Z" fill="#E10500"/>
</svg>
