<svg width="32" height="32" viewBox="0 0 32 32" fill="none" xmlns="http://www.w3.org/2000/svg">
<path d="M15.5834 11.0545H5.78808C5.56292 11.0565 5.33957 11.0141 5.13079 10.9298C4.92202 10.8454 4.73192 10.7207 4.57135 10.5629C4.41078 10.405 4.28289 10.217 4.19499 10.0097C4.1071 9.80243 4.06091 9.57983 4.05908 9.35467V3.69983C4.05908 2.75133 4.84075 2 5.78808 2H13.8532C14.8181 2 15.5834 2.76767 15.5834 3.69983V11.0545ZM26.0881 20.9175H15.5939V11.0417H26.0881C27.1031 11.0417 27.9407 11.8782 27.9407 12.892V19.0683C27.9407 20.1008 27.1042 20.9175 26.0881 20.9175ZM13.8532 30H5.78808C4.84075 30 4.05908 29.2335 4.05908 28.3037V22.6418C4.05908 21.712 4.84075 20.9455 5.78808 20.9455H15.5834V28.3037C15.5834 29.2335 14.8017 30 13.8532 30Z" fill="#FD5402"/>
</svg>
