<svg width="32" height="33" viewBox="0 0 32 33" fill="none" xmlns="http://www.w3.org/2000/svg">
<path fill-rule="evenodd" clip-rule="evenodd" d="M30.7258 7.54192H30.4399C28.9352 7.53958 27.7143 8.75828 27.7143 10.2629V16.3482C27.7143 17.5634 26.71 18.5478 25.5147 18.5478C24.8046 18.5478 24.0956 18.1903 23.675 17.5904L17.4595 8.71375C16.9439 7.97667 16.105 7.53723 15.1967 7.53723C13.78 7.53723 12.505 8.74187 12.505 10.2289V16.3494C12.505 17.5646 11.509 18.5489 10.3055 18.5489C9.59303 18.5489 8.88524 18.1915 8.46456 17.5915L1.50975 7.6591C1.35273 7.43528 1 7.54543 1 7.81964V13.1269C1 13.3952 1.08203 13.6554 1.23554 13.8757L8.07903 23.6499C8.48332 24.2276 9.07977 24.6565 9.76764 24.8123C11.489 25.2038 13.0734 23.8784 13.0734 22.1898V16.0728C13.0734 14.8577 14.0578 13.8733 15.2729 13.8733H15.2763C16.0089 13.8733 16.6956 14.2307 17.1162 14.8307L23.3316 23.7062C23.8483 24.4443 24.6441 24.8827 25.5932 24.8827C27.0415 24.8827 28.2825 23.6768 28.2825 22.191V16.0717C28.2825 14.8565 29.2669 13.8721 30.4821 13.8721H30.7246C30.877 13.8721 31 13.7491 31 13.5968V7.81613C31 7.66379 30.877 7.54075 30.7246 7.54075L30.7258 7.54192Z" fill="#0B100F"/>
</svg>
